# xmcd
#
# Track frame offsets:
#	150
#	13105
#	25038
#	37475
#	48598
#	62065
#	73570
#	86398
#	98035
#	112323
#	123955
#	136105
#	147818
#	161393
#
# Disc length: 2310 seconds
#
# Revision: 2
# Processed by: cddbd v1.5.2PL0 Copyright (c) Steve Scherf et al.
# Submitted via: VUPlayer 2.49
#
DISCID=be09040e
DTITLE=Various Artist - Country's Greatest Hits Vol. 4
DYEAR=1989
DGENRE=Country
TTITLE0=Kenny Rogers - Ruby Don't Take Your Love To Town
TTITLE1=Johnny Cash - You're the Nearest Thing To Heaven
TTITLE2=Johnny Paycheck - I'm Not Looking Back Anymore
TTITLE3=The Burrito Brothers - My Shoes Keep Walking Back To You
TTITLE4=Lynn Anderson - Rose Garden
TTITLE5=Freddy Fender - Before the Next Teardrop Falls
TTITLE6=Bobby Bare - Tender Years
TTITLE7=Patsy Cline - Walkin' After Midnight
TTITLE8=George Jones - It's A Good Year for the Roses
TTITLE9=Willie Nelson - End of Understanding
TTITLE10=Waylon Jennings - Don't Think Twice
TTITLE11=The Lovin' Spoonful - Nashville Cats
TTITLE12=Jerry Lee Lewis - Cold Cold Heart
TTITLE13=Anita Perras - One Smokey Rose
EXTD=
EXTT0=
EXTT1=
EXTT2=
EXTT3=
EXTT4=
EXTT5=
EXTT6=
EXTT7=
EXTT8=
EXTT9=
EXTT10=
EXTT11=
EXTT12=
EXTT13=
PLAYORDER=
